<svg width="40" height="40" viewBox="0 0 40 40" fill="none" xmlns="http://www.w3.org/2000/svg">
<rect width="40" height="40" rx="20" fill="#0F468E"/>
<path d="M15.5546 28.87H12.2623V16.9391H15.5546V28.87ZM13.9067 15.3116C12.8539 15.3116 12 14.3304 12 13.1456C12 12.5766 12.2009 12.0308 12.5584 11.6284C12.916 11.2261 13.401 11 13.9067 11C14.4123 11 14.8973 11.2261 15.2549 11.6284C15.6124 12.0308 15.8133 12.5766 15.8133 13.1456C15.8133 14.3304 14.9591 15.3116 13.9067 15.3116ZM27.8765 28.87H24.5913V23.0621C24.5913 21.678 24.5665 19.9029 22.8796 19.9029C21.1679 19.9029 20.9056 21.4067 20.9056 22.9624V28.87H17.6168V16.9391H20.7744V18.5666H20.8205C21.26 17.6292 22.3337 16.6399 23.9355 16.6399C27.2675 16.6399 27.88 19.1091 27.88 22.3162V28.87H27.8765Z" fill="white"/>
</svg>
