<svg width="40" height="40" viewBox="0 0 40 40" fill="none" xmlns="http://www.w3.org/2000/svg">
<rect width="40" height="40" rx="20" fill="#0F468E"/>
<path d="M27.1498 16.0623C27.1612 16.2405 27.1612 16.4188 27.1612 16.5971C27.1612 22.0347 23.4493 28.3 16.665 28.3C14.5749 28.3 12.6333 27.625 11 26.4535C11.297 26.4917 11.5825 26.5045 11.8909 26.5045C13.6155 26.5045 15.2031 25.855 16.4708 24.7471C14.849 24.7089 13.4898 23.5246 13.0216 21.8946C13.25 21.9328 13.4784 21.9583 13.7183 21.9583C14.0495 21.9583 14.3807 21.9073 14.6891 21.8182C12.9987 21.4361 11.7309 19.7807 11.7309 17.7814V17.7305C12.222 18.0361 12.7932 18.2271 13.3984 18.2526C12.4048 17.514 11.7538 16.2533 11.7538 14.827C11.7538 14.063 11.9365 13.3626 12.2563 12.7513C14.0723 15.2472 16.802 16.8772 19.8629 17.0555C19.8058 16.7499 19.7716 16.4316 19.7716 16.1132C19.7716 13.8465 21.4162 12 23.4607 12C24.5228 12 25.4822 12.4966 26.1561 13.2989C26.9898 13.1206 27.7893 12.7768 28.4975 12.3056C28.2233 13.2607 27.6409 14.063 26.8756 14.5723C27.618 14.4832 28.3376 14.254 29 13.9356C28.4975 14.7506 27.8693 15.4764 27.1498 16.0623Z" fill="white"/>
</svg>
