<svg width="40" height="40" viewBox="0 0 40 40" fill="none" xmlns="http://www.w3.org/2000/svg">
<rect width="40" height="40" rx="20" fill="#0F468E"/>
<path d="M28.3301 15.9824C28.1266 15.2021 27.5268 14.5875 26.7653 14.379C25.3849 14 19.85 14 19.85 14C19.85 14 14.3151 14 12.9347 14.379C12.1732 14.5876 11.5734 15.2021 11.3699 15.9824C11 17.3968 11 20.3478 11 20.3478C11 20.3478 11 23.2988 11.3699 24.7132C11.5734 25.4935 12.1732 26.0825 12.9347 26.291C14.3151 26.67 19.85 26.67 19.85 26.67C19.85 26.67 25.3849 26.67 26.7653 26.291C27.5268 26.0825 28.1266 25.4935 28.3301 24.7132C28.7 23.2988 28.7 20.3478 28.7 20.3478C28.7 20.3478 28.7 17.3968 28.3301 15.9824ZM18.0398 23.0271V17.6685L22.6659 20.3479L18.0398 23.0271Z" fill="white"/>
</svg>
